<?xml version="1.0" standalone="no"?>
<!DOCTYPE svg PUBLIC "-//W3C//DTD SVG 20010904//EN"
 "http://www.w3.org/TR/2001/REC-SVG-20010904/DTD/svg10.dtd">
<svg version="1.0" xmlns="http://www.w3.org/2000/svg"
 width="260.000000pt" height="260.000000pt" viewBox="0 0 260.000000 260.000000"
 preserveAspectRatio="xMidYMid meet">
<metadata>
Created by potrace 1.11, written by Peter Selinger 2001-2013
</metadata>
<g transform="translate(0.000000,260.000000) scale(0.100000,-0.100000)"
fill="#000000" stroke="none">
<path d="M238 1595 c-5 -5 -8 -159 -8 -343 l0 -335 173 6 c107 3 192 11 225
20 160 46 231 154 220 335 -9 156 -93 255 -253 297 -66 17 -345 32 -357 20z
m362 -155 c79 -44 110 -119 95 -235 -14 -114 -70 -156 -216 -163 l-99 -5 0
218 0 217 88 -4 c69 -3 97 -9 132 -28z"/>
<path d="M2017 1585 c-87 -32 -140 -99 -152 -191 l-7 -51 38 -6 c76 -13 79
-12 81 39 1 26 9 57 18 70 40 62 150 72 205 19 98 -94 -5 -245 -277 -405 l-73
-42 0 -49 0 -49 260 0 260 0 0 50 0 50 -197 0 -198 0 75 41 c224 122 332 260
299 382 -26 98 -113 157 -229 156 -36 0 -82 -7 -103 -14z"/>
<path d="M1090 1571 c0 -42 -72 -101 -125 -101 -24 0 -25 -2 -25 -65 0 -61 1
-65 23 -65 34 0 87 37 102 73 13 29 14 11 15 -180 l0 -213 -55 0 -55 0 0 -50
0 -50 160 0 160 0 0 50 0 50 -45 0 -45 0 0 285 0 285 -55 0 c-47 0 -55 -3 -55
-19z"/>
<path d="M1550 1571 c0 -42 -72 -101 -125 -101 -24 0 -25 -2 -25 -65 0 -61 1
-65 23 -65 34 0 87 37 102 73 13 29 14 11 15 -180 l0 -213 -55 0 -55 0 0 -50
0 -50 160 0 160 0 0 50 0 50 -45 0 -45 0 0 285 0 285 -55 0 c-47 0 -55 -3 -55
-19z"/>
</g>
</svg>
