<?xml version="1.0" standalone="no"?>
<!DOCTYPE svg PUBLIC "-//W3C//DTD SVG 1.1//EN" "http://www.w3.org/Graphics/SVG/1.1/DTD/svg11.dtd" >
<svg xmlns="http://www.w3.org/2000/svg">
<defs>
  <font id="Digital112 icon" horiz-adv-x="256">
    <font-face font-family="Digital112 icon"
      units-per-em="256" ascent="256"
      descent="0" />
    <missing-glyph horiz-adv-x="0" />
    <glyph glyph-name="house-1"
      unicode="&#xEA02;"
      horiz-adv-x="256" d="M241.3333333333333 168.3306666666667L134.6666666666667 253.664A10.666666666666666 10.666666666666666 0 0 1 121.3333333333333 253.664L14.6666666666667 168.3306666666667A10.666666666666666 10.666666666666666 0 0 1 10.6666666666667 160V21.3333333333333A10.666666666666666 10.666666666666666 0 0 1 21.3333333333333 10.6666666666667H96V96H160V10.6666666666667H234.6666666666667A10.666666666666666 10.666666666666666 0 0 1 245.3333333333333 21.3333333333333V160A10.666666666666666 10.666666666666666 0 0 1 241.3333333333333 168.3306666666667z" />
    <glyph glyph-name="house-2"
      unicode="&#xEA03;"
      horiz-adv-x="256" d="M121.973 243.288C116.027 239.171 14.328 157.522 12.772 155.616C11.171 153.655 11.043 148.174 11.022 80.7C10.998 1.666 10.855 3.754 16.472 1.195C18.364 0.333 30.1 0 58.597 0C92.499 0 98.529 0.222 101.128 1.566C106.688 4.442 107 6.612 107 42.468L107 75L128 75L149 75L149 42.468C149 6.612 149.312 4.442 154.872 1.566C157.471 0.222 163.501 0 197.403 0C225.9 0 237.636 0.333 239.528 1.195C245.145 3.754 245.002 1.666 244.978 80.7C244.957 148.174 244.829 153.655 243.228 155.616C241.672 157.522 139.973 239.171 134.027 243.288C130.859 245.482 125.141 245.482 121.973 243.288M176.296 182.5L223.897 144.5L223.948 82.75L224 21L197.5 21L171 21L171 53.532C171 89.388 170.688 91.558 165.128 94.434C160.604 96.774 95.396 96.774 90.872 94.434C85.312 91.558 85 89.388 85 53.532L85 21L58.5 21L32 21L32.053 82.75L32.106 144.5L79.803 182.672C106.036 203.666 127.769 220.766 128.098 220.672C128.427 220.577 150.116 203.4 176.296 182.5" />
    <glyph glyph-name="world-1"
      unicode="&#xEA04;"
      horiz-adv-x="256" d="M128 256C57.4186666666667 256 0 198.5813333333333 0 128S57.4186666666667 0 128 0S256 57.4186666666667 256 128S198.5813333333333 256 128 256zM128 21.3333333333333C101.3333333333333 21.3333333333333 76.9813333333333 31.2426666666667 58.2613333333333 47.4773333333334C58.3466666666667 47.616 58.464 47.7333333333334 58.5386666666667 47.872C76.16 77.3973333333333 65.0773333333333 95.4346666666667 56.896 103.5626666666667C54.7413333333333 105.7066666666667 52.2773333333333 107.6586666666667 49.7386666666667 109.6213333333333C43.104 114.7733333333334 38.7093333333333 118.176 38.7093333333333 128C38.7093333333333 132.6293333333333 41.2906666666667 134.4426666666667 54.0373333333333 138.7946666666667C62.8053333333333 141.792 72.736 145.184 79.1466666666667 153.472C94.0266666666667 172.7146666666667 77.664 202.3893333333334 74.2293333333333 208.1493333333334C72.4693333333333 211.104 70.56 213.8773333333334 68.576 216.5333333333333C84.608 227.328 103.744 233.7706666666667 124.3093333333333 234.4853333333334C127.6373333333333 228.8426666666667 133.1306666666667 224.0853333333333 138.528 219.4453333333334C143.136 215.4773333333333 150.4533333333333 213.8133333333333 154.2186666666667 209.12C156.3733333333333 206.432 155.328 201.248 155.4026666666667 197.856C155.552 191.1253333333334 159.6266666666666 181.3653333333333 173.3653333333333 181.3653333333333C173.9733333333333 181.3653333333333 174.6026666666666 181.3866666666667 175.2533333333333 181.4293333333333C180.5653333333333 181.8026666666667 197.1413333333333 185.6 213.8026666666666 191.104C226.8586666666667 173.3973333333333 234.6666666666667 151.616 234.6666666666667 128C234.6666666666667 69.184 186.816 21.3333333333333 128 21.3333333333333zM165.4826666666667 161.0346666666667C148.672 161.0346666666667 131.5093333333333 153.0453333333333 122.784 141.1626666666667C116.928 133.184 115.2213333333333 123.9573333333334 117.9733333333333 115.1786666666667C123.4666666666667 97.664 124 87.3386666666667 120.5653333333333 75.7653333333333C117.5146666666667 65.4826666666667 117.216 50.5706666666667 134.6346666666667 43.4666666666667C137.92 42.1226666666667 141.5253333333333 41.44 145.3226666666666 41.44C158.272 41.44 173.6 49.4506666666667 187.392 63.4346666666667C203.968 80.2346666666667 213.7173333333333 100.8213333333333 213.4826666666666 118.528C213.1626666666667 142.3573333333334 192.0746666666667 161.0346666666667 165.4826666666667 161.0346666666667z" />
    <glyph glyph-name="world-2"
      unicode="&#xEA05;"
      horiz-adv-x="256" d="M108.306 254.468C86.251 250.434 66.218 241.831 50.15 229.492C42.685 223.76 30.524 211.187 24.117 202.578C13.296 188.038 4.506 166.094 1.455 146C-4.588 106.211 9.673 64.918 39.355 36.262C89.265 -11.923 166.701 -11.955 216.569 36.188C280.902 98.297 263.5 204.649 182.654 243.451C160.232 254.213 130.777 258.578 108.306 254.468M139.047 233.947C160.117 231.785 183.158 221.789 197.79 208.463L202.5 204.173L199.5 203.013C194.072 200.914 170.615 194.011 164.825 192.809C157.832 191.357 157.674 191.469 151.306 202.335C148.674 206.826 144.02 213.425 140.964 217C131.128 228.507 126.594 235 128.394 235C128.611 235 133.404 234.526 139.047 233.947M110.809 221.341C111.986 219.053 116.616 212.753 121.099 207.341C125.582 201.928 129.949 196.375 130.802 195C140.624 179.176 143.1 176.129 148.202 173.586C155.27 170.064 162.567 170.165 177.286 173.987C186.774 176.45 208.532 183.601 215.127 186.423C218.077 187.686 225.79 172.712 230.398 156.775C238.046 130.323 234.946 102.624 221.497 77.257C198.351 33.597 146.221 11.699 98.412 25.553C87.91 28.597 68.024 38.203 68.006 40.241C68.003 40.649 69.537 42.996 71.415 45.457C77.864 53.906 81.553 67.173 80.731 78.962C79.923 90.544 75.365 99.999 64.566 112.5C56.459 121.884 53.733 125.861 54.333 127.425C54.638 128.22 60.65 131.814 67.694 135.411C87.947 145.756 95.361 152.554 98.621 163.768C102.533 177.224 96.429 198.359 83.609 215.753C81.074 219.192 79 222.223 79 222.489C79 223.269 85.766 226 96.486 229.546L106.471 232.85L107.571 229.175C108.176 227.154 109.633 223.628 110.809 221.341M64.494 205.75C69.412 200.024 76.794 184.815 78.055 177.812C79.971 167.166 77.403 164.395 55.001 152.931C38.59 144.533 32.024 136.954 32.006 126.384C31.997 121.395 38.342 110.249 46.99 100.064C59.231 85.647 61.774 78.613 58.64 67.834C56.814 61.553 53.068 55.5 51.007 55.5C48.797 55.5 39.557 67.626 34.624 77C25.391 94.544 21.692 109.17 21.723 128C21.76 149.749 27.7 169.598 39.534 187.515C43.461 193.461 58.559 210 60.06 210C60.491 210 62.487 208.087 64.494 205.75M153.5 159.507C133.165 154.984 118.046 139.828 117.745 123.664C117.306 100.077 118.146 62.244 119.187 58.771C120.639 53.925 127.459 46.684 132.665 44.46C138.453 41.987 146.783 41.051 152.5 42.23C171.747 46.198 194.619 66.44 205.914 89.5C211.586 101.081 213.278 108.565 212.81 120C212.462 128.481 212.059 130.175 209.049 135.792C205.133 143.099 196.169 151.867 188.795 155.604C178.888 160.624 165.288 162.128 153.5 159.507M178.242 136.775C183.212 134.664 189.42 128.655 191.045 124.383C193.6 117.662 190.669 104.816 183.989 93.449C179.018 84.991 163.886 70.039 156.812 66.595C150.229 63.39 144.149 62.315 141.283 63.849C139.338 64.889 139.282 65.847 139.412 95.409C139.545 125.411 139.584 125.945 141.812 128.959C149.082 138.793 165.298 142.272 178.242 136.775" />
    <glyph glyph-name="hierarchy-55-1"
      unicode="&#xEA06;"
      horiz-adv-x="256" d="M42.6666666666667 117.3333333333334H117.3333333333333V85.3333333333333H138.6666666666667V117.3333333333334H213.3333333333333V85.3333333333333H234.6666666666667V128C234.6666666666667 133.8986666666667 229.888 138.6666666666667 224 138.6666666666667H138.6666666666667V170.6666666666667H117.3333333333334V138.6666666666667H32C26.112 138.6666666666667 21.3333333333333 133.8986666666667 21.3333333333333 128V85.3333333333333H42.6666666666667V117.3333333333334zM96 224A32 32 0 0 1 160 224A32 32 0 0 1 96 224M0 32A32 32 0 0 1 64 32A32 32 0 0 1 0 32M96 32A32 32 0 0 1 160 32A32 32 0 0 1 96 32M192 32A32 32 0 0 1 256 32A32 32 0 0 1 192 32" />
    <glyph glyph-name="hierarchy-55-2"
      unicode="&#xEA07;"
      horiz-adv-x="256" d="M120.734 254.97C111.404 252.627 103.095 245.89 98.812 237.193C96.946 233.404 96.5 230.862 96.5 224C96.5 213.879 98.692 208.466 105.579 201.579C116.752 190.406 133.733 188.939 146.421 198.051C167.042 212.86 163.331 243.659 139.744 253.47C134.969 255.456 125.609 256.195 120.734 254.97M133.64 232.827C137.998 230.694 139.693 223.533 137.022 218.541C136.301 217.193 134.18 215.364 132.308 214.476C121.798 209.489 112.426 223.153 120.689 231.416C124.256 234.983 128.328 235.427 133.64 232.827M123.321 169.387C118.328 166.924 117 162.872 117 150.099L117 139L73.901 139C36.724 139 30.346 138.783 27.478 137.423C21.827 134.741 21 131.496 21 112C21 92.379 21.808 89.268 27.624 86.508C32.074 84.397 35.881 85.224 39.609 89.111C42.434 92.057 42.508 92.41 42.832 104.563L43.163 117L80.082 117L117 117L117 105.901C117 92.99 118.331 89.02 123.478 86.577C127.61 84.617 128.39 84.617 132.522 86.577C137.669 89.02 139 92.99 139 105.901L139 117L176 117L213 117L213 105.901C213 92.88 214.316 89.027 219.624 86.508C224.075 84.396 227.882 85.224 231.609 89.114L234.5 92.131L234.5 112.046L234.5 131.962L231.232 135.231L227.963 138.5L183.482 138.78L139 139.06L139 150.129C139 163.008 137.666 166.982 132.522 169.423C128.421 171.369 127.331 171.364 123.321 169.387M24.734 62.97C15.404 60.627 7.095 53.89 2.812 45.193C0.946 41.404 0.5 38.862 0.5 32C0.5 21.879 2.692 16.466 9.579 9.579C20.752 -1.594 37.733 -3.061 50.421 6.051C71.042 20.86 67.331 51.659 43.744 61.47C38.969 63.456 29.609 64.195 24.734 62.97M120.734 62.97C111.404 60.627 103.095 53.89 98.812 45.193C96.946 41.404 96.5 38.862 96.5 32C96.5 21.879 98.692 16.466 105.579 9.579C116.752 -1.594 133.733 -3.061 146.421 6.051C167.042 20.86 163.331 51.659 139.744 61.47C134.969 63.456 125.609 64.195 120.734 62.97M216.734 62.97C207.404 60.627 199.095 53.89 194.812 45.193C192.946 41.404 192.5 38.862 192.5 32C192.5 21.879 194.692 16.466 201.579 9.579C212.752 -1.594 229.733 -3.061 242.421 6.051C263.042 20.86 259.331 51.659 235.744 61.47C230.969 63.456 221.609 64.195 216.734 62.97M37.64 40.827C41.998 38.694 43.693 31.533 41.022 26.541C40.301 25.193 38.18 23.364 36.308 22.476C25.798 17.489 16.426 31.153 24.689 39.416C28.256 42.983 32.328 43.427 37.64 40.827M133.64 40.827C137.998 38.694 139.693 31.533 137.022 26.541C136.301 25.193 134.18 23.364 132.308 22.476C121.798 17.489 112.426 31.153 120.689 39.416C124.256 42.983 128.328 43.427 133.64 40.827M229.64 40.827C233.998 38.694 235.693 31.533 233.022 26.541C232.301 25.193 230.18 23.364 228.308 22.476C217.798 17.489 208.426 31.153 216.689 39.416C220.256 42.983 224.328 43.427 229.64 40.827" />
    <glyph glyph-name="multiple-11-1"
      unicode="&#xEA08;"
      horiz-adv-x="256" d="M128 192L128 192C110.3253333333333 192 96 206.3253333333333 96 224V224C96 241.6746666666667 110.3253333333333 256 128 256H128C145.6746666666667 256 160 241.6746666666667 160 224V224C160 206.3253333333333 145.6746666666667 192 128 192zM42.6666666666667 53.3333333333333V138.6666666666667C42.6666666666667 150.72 46.8373333333333 161.728 53.6106666666667 170.6666666666667H21.3333333333333C9.5466666666667 170.6666666666667 0 161.12 0 149.3333333333334V85.3333333333333H21.3333333333333V32C21.3333333333333 26.112 26.112 21.3333333333333 32 21.3333333333333H53.3333333333333C59.2213333333333 21.3333333333333 64 26.112 64 32V53.3333333333333H42.6666666666667zM149.3333333333333 0H106.6666666666667C100.7786666666667 0 96 4.7786666666667 96 10.6666666666667V74.6666666666667H64V138.6666666666667C64 156.3413333333333 78.3253333333333 170.6666666666667 96 170.6666666666667H160C177.6746666666667 170.6666666666667 192 156.3413333333333 192 138.6666666666667V74.6666666666667H160V10.6666666666667C160 4.7786666666667 155.2213333333333 0 149.3333333333333 0zM42.6666666666667 181.3333333333334L42.6666666666667 181.3333333333334C30.88 181.3333333333334 21.3333333333333 190.88 21.3333333333333 202.6666666666667V202.6666666666667C21.3333333333333 214.4533333333333 30.88 224 42.6666666666667 224H42.6666666666667C54.4533333333333 224 64 214.4533333333333 64 202.6666666666667V202.6666666666667C64 190.88 54.4533333333333 181.3333333333334 42.6666666666667 181.3333333333334zM213.3333333333333 53.3333333333333V138.6666666666667C213.3333333333333 150.72 209.1626666666667 161.728 202.3893333333333 170.6666666666667H234.6666666666667C246.4533333333333 170.6666666666667 256 161.12 256 149.3333333333334V85.3333333333333H234.6666666666667V32C234.6666666666667 26.112 229.888 21.3333333333333 224 21.3333333333333H202.6666666666667C196.7786666666667 21.3333333333333 192 26.112 192 32V53.3333333333333H213.3333333333333zM213.3333333333333 181.3333333333334L213.3333333333333 181.3333333333334C225.12 181.3333333333334 234.6666666666667 190.88 234.6666666666667 202.6666666666667V202.6666666666667C234.6666666666667 214.4533333333333 225.12 224 213.3333333333333 224H213.3333333333333C201.5466666666667 224 192 214.4533333333333 192 202.6666666666667V202.6666666666667C192 190.88 201.5466666666667 181.3333333333334 213.3333333333333 181.3333333333334z" />
    <glyph glyph-name="multiple-11-2"
      unicode="&#xEA09;"
      horiz-adv-x="256" d="M117.251 254.519C106.485 251.488 98.121 245.355 92.261 236.194C78.306 214.378 86.838 185.994 110.741 174.713C120.752 169.989 135.248 169.989 145.259 174.713C165.809 184.412 174.86 205.584 168.038 228C165.174 237.411 153.602 249.122 143.344 252.99C135.825 255.825 124.288 256.501 117.251 254.519M35.131 233.861C25.237 231.538 15.729 222.721 12.44 212.818C10.13 205.864 10.774 194.954 13.846 189C19.512 178.019 29.055 171.758 41 171.185C50.748 170.717 57.814 173.248 64.414 179.573C77.251 191.872 77.729 211.333 65.525 224.84C58.571 232.538 45.73 236.349 35.131 233.861M136.556 232.973C137.687 232.546 140.114 230.934 141.949 229.39C151.387 221.448 151.257 205.701 141.684 197.296C128.126 185.391 107.044 195.253 107.044 213.5C107.044 228.687 121.916 238.501 136.556 232.973M207.903 233.911C195.815 232.067 185.759 222.744 182.473 210.333C178.488 195.281 187.247 178.432 201.92 172.921C209.465 170.087 220.479 170.521 227.183 173.916C237.804 179.294 244.293 189.254 244.831 201C245.286 210.925 242.732 217.91 236.234 224.516C228.526 232.35 218.807 235.573 207.903 233.911M50.077 210.077C54.845 205.309 53.66 196.427 47.855 193.425C38.508 188.591 28.523 198.388 33.458 207.551C36.795 213.748 45.138 215.016 50.077 210.077M220.728 209.472C223.94 206.26 224.205 205.567 223.69 201.722C222.616 193.715 214.744 189.675 207.99 193.665C198.999 198.976 202.649 213 213.023 213C216.47 213 217.817 212.383 220.728 209.472M22.296 158.552C12.399 155.459 3.136 145.394 0.994 135.406C0.315 132.241 0.023 119.135 0.207 100.103L0.5 69.833L3.766 66.917C6.713 64.285 7.713 64 14.016 64L21 64L21 47.401C21 21.067 21.384 20.714 49.514 21.188L67.966 21.5L71.21 24.747C75.773 29.313 75.774 34.687 71.211 39.253L67.967 42.5L55.484 42.832L43 43.163L43 59.114C43 82.182 41.391 85 28.226 85L20.897 85L21.199 108.483L21.5 131.965L24.744 135.207C27.876 138.338 28.334 138.467 38.082 138.975C47.601 139.47 48.313 139.66 50.588 142.306C55.006 147.445 53.358 155.793 47.316 158.883C44.351 160.399 27.492 160.176 22.296 158.552M86.296 158.575C76.359 155.416 67.133 145.382 64.994 135.406C64.315 132.241 64.023 119.135 64.207 100.103L64.5 69.833L67.766 66.917C70.713 64.285 71.713 64 78.016 64L85 64L85 36.968C85 7.076 85.449 4.371 90.872 1.566C95.396 -0.774 160.604 -0.774 165.128 1.566C170.362 4.273 171 7.52 171 31.468L171 53L176.532 53C183.702 53 188.449 55.033 190.489 58.979C191.917 61.74 192.074 66.568 191.806 99.308L191.5 136.5L189 141.493C185.884 147.715 179.467 154.099 173.25 157.161C168.541 159.48 168.164 159.502 129.5 159.705C99.26 159.865 89.556 159.611 86.296 158.575M208.5 158.896C202.57 155.467 201.062 147.365 205.412 142.306C207.687 139.66 208.399 139.47 217.918 138.975C227.667 138.467 228.124 138.338 231.256 135.207L234.5 131.964L234.5 108.732L234.5 85.5L226.898 85C214.23 84.167 213 81.877 213 59.114L213 43.163L200.563 42.832C188.41 42.508 188.057 42.434 185.111 39.609C181.224 35.881 180.397 32.074 182.508 27.624C185.388 21.555 188.42 20.832 209.514 21.188L227.966 21.5L231.233 24.767L234.5 28.033L234.813 46.017L235.126 64L242.047 64C248.282 64 249.292 64.289 252.234 66.919L255.5 69.838L255.5 103.169L255.5 136.5L253 141.493C249.878 147.728 243.454 154.111 237.25 157.143C233.325 159.062 230.589 159.516 221.5 159.759C214.471 159.947 209.778 159.635 208.5 158.896M167.232 135.232L170.5 131.965L170.794 103.482L171.088 75L164.945 75C161.423 75 157.384 74.327 155.478 73.423C149.574 70.621 149 67.934 149 43.099L149 21L128 21L107 21L107 48.032C107 83.274 106.687 84.106 93.102 85L85.5 85.5L85.23 107.307C85.005 125.567 85.219 129.66 86.551 132.467C89.597 138.886 90.525 139.023 129.232 138.747L163.964 138.5L167.232 135.232" />
    <glyph glyph-name="gear-1"
      unicode="&#xEA0A;"
      horiz-adv-x="256" d="M234.6666666666667 149.3333333333334H221.536A95.39199999999998 95.39199999999998 0 0 1 209.2053333333333 179.04L218.5066666666666 188.3413333333334A21.333333333333332 21.333333333333332 0 0 1 188.3413333333333 218.5066666666667L179.04 209.2053333333333A95.39199999999998 95.39199999999998 0 0 1 149.3333333333333 221.536V234.6666666666667A21.333333333333332 21.333333333333332 0 0 1 106.6666666666667 234.6666666666667V221.536A95.39199999999998 95.39199999999998 0 0 1 76.96 209.2053333333333L67.6586666666667 218.5066666666667A21.333333333333332 21.333333333333332 0 0 1 37.4933333333333 188.3413333333334L46.7946666666667 179.04A95.39199999999998 95.39199999999998 0 0 1 34.464 149.3333333333334H21.3333333333333A21.333333333333332 21.333333333333332 0 0 1 21.3333333333333 106.6666666666667H34.464A95.39199999999998 95.39199999999998 0 0 1 46.7946666666667 76.96L37.4933333333333 67.6586666666667A21.333333333333332 21.333333333333332 0 0 1 67.6586666666667 37.4933333333333L76.96 46.7946666666667A95.39199999999998 95.39199999999998 0 0 1 106.6666666666667 34.464V21.3333333333333A21.333333333333332 21.333333333333332 0 0 1 149.3333333333333 21.3333333333333V34.464A95.39199999999998 95.39199999999998 0 0 1 179.04 46.7946666666667L188.3413333333333 37.4933333333334A21.333333333333332 21.333333333333332 0 0 1 218.5066666666667 67.6586666666667L209.2053333333333 76.96A95.39199999999998 95.39199999999998 0 0 1 221.536 106.6666666666667H234.6666666666667A21.333333333333332 21.333333333333332 0 0 1 234.6666666666667 149.3333333333334zM128 85.3333333333333A42.666666666666664 42.666666666666664 0 1 0 170.6666666666667 128A42.666666666666664 42.666666666666664 0 0 0 128 85.3333333333333z" />
    <glyph glyph-name="gear-2"
      unicode="&#xEA0B;"
      horiz-adv-x="256" d="M120.734 254.97C106.594 251.419 97.152 240.049 96.215 225.443L95.748 218.176L91.393 216.512L87.038 214.849L82.269 218.87C74.955 225.037 68.881 227.346 60 227.334C50.204 227.321 43.799 224.596 37.225 217.645C31.161 211.232 28.5 204.632 28.5 196C28.5 187.792 30.907 181.42 36.688 174.323L41.12 168.881L39.477 164.579L37.834 160.276L30.876 159.693C18.312 158.64 8.084 151.897 2.812 141.193C0.946 137.404 0.5 134.862 0.5 128C0.5 117.879 2.692 112.466 9.579 105.579C15.674 99.484 21.728 96.781 30.557 96.215L37.824 95.748L39.501 91.358L41.178 86.967L38.056 83.41C24.738 68.243 24.857 49.992 38.355 37.225C44.768 31.161 51.368 28.5 60 28.5C68.208 28.5 74.58 30.907 81.677 36.688L87.119 41.12L91.56 39.424L96 37.728L96 32.523C96 6.353 125.378 -9.061 146.436 6.061C154.89 12.132 159.967 22.079 159.989 32.614L160 37.728L164.44 39.424L168.881 41.12L174.323 36.688C181.623 30.741 187.76 28.488 196.5 28.547C205.697 28.608 212.31 31.52 218.775 38.355C224.839 44.768 227.5 51.368 227.5 60C227.5 68.208 225.093 74.58 219.312 81.677L214.88 87.119L216.576 91.56L218.272 96L223.386 96.011C249.703 96.067 265.08 125.352 249.894 146.497C244.218 154.402 235.939 158.786 224.949 159.707L218.166 160.276L216.523 164.579L214.88 168.881L219.312 174.323C225.093 181.42 227.5 187.792 227.5 196C227.5 204.632 224.839 211.232 218.775 217.645C212.201 224.596 205.796 227.321 196 227.334C187.119 227.346 181.045 225.037 173.731 218.87L168.962 214.849L164.481 216.56L160 218.272L159.989 223.386C159.961 236.84 152.278 248.257 139.744 253.47C134.969 255.456 125.609 256.195 120.734 254.97M133.547 232.877C137.403 230.998 138.403 227.943 138.82 216.777C139.185 206.977 139.433 205.84 141.694 203.579C143.054 202.218 146.492 200.334 149.334 199.391C152.175 198.449 157.637 196.175 161.472 194.339C171.99 189.301 173.55 189.602 183.065 198.5C190.605 205.552 191.355 206 195.619 206C199.298 206 200.706 205.448 203.077 203.077C205.448 200.706 206 199.298 206 195.619C206 191.355 205.552 190.605 198.5 183.065C189.602 173.55 189.301 171.99 194.339 161.472C196.175 157.637 198.449 152.175 199.391 149.334C200.334 146.492 202.218 143.054 203.579 141.694C205.84 139.433 206.977 139.185 216.777 138.82C228.08 138.398 230.886 137.45 233.106 133.302C234.705 130.314 234.669 125.618 233.022 122.541C230.9 118.577 226.213 117 216.549 117C205.52 117 202.777 115.683 200.451 109.271C199.5 106.647 196.984 100.634 194.861 95.908C189.328 83.595 189.49 82.569 198.5 72.935C205.472 65.48 206 64.607 206 60.535C206 52.859 199.092 47.494 192.456 50.017C191.057 50.548 186.581 54.137 182.509 57.992C173.721 66.309 172.467 66.53 161.745 61.643C157.694 59.797 152.082 57.524 149.274 56.591C146.465 55.658 143.005 53.732 141.584 52.311C139.224 49.951 139 49.014 139 41.489C139 30.802 138.293 27.565 135.305 24.578C131.985 21.258 127.874 20.491 123.788 22.431C118.562 24.91 117.625 27.291 117.18 39.223C116.815 49.021 116.567 50.16 114.308 52.419C112.948 53.779 108.835 55.879 105.168 57.086C101.501 58.292 95.925 60.567 92.779 62.14C83.935 66.561 82.136 66.174 73.491 57.992C69.419 54.137 64.943 50.548 63.544 50.017C56.908 47.494 50 52.859 50 60.535C50 64.607 50.528 65.48 57.5 72.935C66.398 82.45 66.699 84.01 61.661 94.528C59.825 98.363 57.56 103.75 56.629 106.5C53.517 115.688 51.372 117 39.467 117C29.786 117 25.101 118.575 22.978 122.541C21.331 125.618 21.295 130.314 22.894 133.302C25.114 137.45 27.92 138.398 39.223 138.82C49.023 139.185 50.16 139.433 52.421 141.694C53.782 143.054 55.666 146.492 56.609 149.334C57.551 152.175 59.825 157.637 61.661 161.472C66.699 171.99 66.398 173.55 57.5 183.065C50.448 190.605 50 191.355 50 195.619C50 202.044 53.956 206 60.381 206C64.645 206 65.395 205.552 72.935 198.5C82.45 189.602 84.01 189.301 94.528 194.339C98.363 196.175 103.825 198.449 106.666 199.391C109.508 200.334 112.995 202.268 114.416 203.689C116.776 206.049 117 206.986 117 214.511C117 225.201 117.707 228.434 120.699 231.426C124.231 234.958 128.327 235.421 133.547 232.877M121.854 169.936C110.094 168.583 96.831 159.549 90.823 148.799C81.636 132.361 84.607 111.488 98.048 98.048C122.614 73.481 164.495 87.339 170.057 121.874C173.303 142.027 160.013 162.766 140 168.778C135.042 170.268 128.415 170.69 121.854 169.936M139.344 145.815C141.458 144.37 144.383 141.458 145.844 139.344C148.141 136.02 148.5 134.486 148.5 128C148.5 121.468 148.147 119.984 145.763 116.5C144.258 114.3 141.366 111.375 139.337 110C136.197 107.873 134.506 107.5 128 107.5C121.494 107.5 119.803 107.873 116.663 110C105.382 117.643 103.643 133.49 113.054 142.9C117.779 147.625 121.79 149.097 129 148.753C134.043 148.512 136.362 147.853 139.344 145.815" />
    <glyph glyph-name="move-layer-left-1"
      unicode="&#xEA0C;"
      horiz-adv-x="256" d="M10.6666666666667 256C4.7786666666667 256 0 251.2213333333334 0 245.3333333333334V10.6666666666667C0 4.7786666666667 4.7786666666667 0 10.6666666666667 0S21.3333333333333 4.7786666666667 21.3333333333333 10.6666666666667V245.3333333333334C21.3333333333333 251.2213333333334 16.5546666666667 256 10.6666666666667 256zM160 53.3333333333333L64 128L160 202.6666666666667V138.6666666666667H245.3333333333333C251.232 138.6666666666667 256 133.8986666666667 256 128S251.232 117.3333333333334 245.3333333333333 117.3333333333334H160V53.3333333333333z" />
    <glyph glyph-name="move-layer-right-1"
      unicode="&#xEA0D;"
      horiz-adv-x="256" d="M245.3333333333333 256C251.2213333333333 256 256 251.2213333333334 256 245.3333333333334V10.6666666666667C256 4.7786666666667 251.2213333333333 0 245.3333333333333 0S234.6666666666667 4.7786666666667 234.6666666666667 10.6666666666667V245.3333333333334C234.6666666666667 251.2213333333334 239.4453333333334 256 245.3333333333333 256zM96 53.3333333333333L192 128L96 202.6666666666667V138.6666666666667H10.6666666666667C4.768 138.6666666666667 0 133.8986666666667 0 128S4.768 117.3333333333334 10.6666666666667 117.3333333333334H96V53.3333333333333z" />
    <glyph glyph-name="move-layer-right-2"
      unicode="&#xEA0E;"
      horiz-adv-x="256" d="M229.42 243.855C228.276 243.3 226.589 241.574 225.67 240.019C224.137 237.424 224 228.212 224 128.046C224 9.455 223.747 14.803 229.472 12.195C234.164 10.057 238.854 10.7 242.077 13.923L245 16.846L245 128L245 239.154L242.077 242.077C238.959 245.195 233.703 245.934 229.42 243.855M113.388 202.02C109.751 200.55 107 196.09 107 191.662C107 187.685 107.543 187.049 131.223 163.297L155.446 139L82.691 139C21.519 139 9.385 138.77 6.478 137.555C-0.717 134.549 -1.953 124.255 4.323 119.596C7.121 117.518 7.79 117.498 81.277 117.231L155.408 116.962L131.204 92.684C107.543 68.951 107 68.315 107 64.338C107 56.957 113.62 51.729 120.213 53.905C122.538 54.673 133.876 65.354 157.772 89.286L192 123.567L192 128L192 132.432L158.25 166.321C139.478 185.17 123.072 200.83 121.282 201.605C117.658 203.176 116.412 203.242 113.388 202.02" />
    <glyph glyph-name="move-layer-left-2"
      unicode="&#xEA0F;"
      horiz-adv-x="256" d="M13.923 242.077L11 239.154L11 128L11 16.846L13.923 13.923C17.146 10.7 21.836 10.057 26.528 12.195C32.253 14.803 32 9.455 32 128.046C32 228.083 31.861 237.427 30.335 240.01C26.917 245.796 18.68 246.834 13.923 242.077M134.5 201.604C132.85 200.836 116.313 184.958 97.75 166.32L64 132.432L64 128L64 123.567L98.228 89.286C122.124 65.354 133.462 54.673 135.787 53.905C142.38 51.729 149 56.957 149 64.338C149 68.315 148.457 68.951 124.796 92.684L100.592 116.962L174.723 117.231C248.21 117.498 248.879 117.518 251.677 119.596C257.953 124.255 256.717 134.549 249.522 137.555C246.615 138.77 234.481 139 173.309 139L100.554 139L124.777 163.297C148.683 187.276 149 187.649 149 191.781C149 199.586 141.33 204.782 134.5 201.604" />
    <glyph glyph-name="small-down"
      unicode="&#xEA10;"
      horiz-adv-x="256" d="M80.5 158.894C76.766 156.738 75.045 153.637 75.022 149.023L75 144.546L98.75 120.835C114.075 105.535 123.476 96.885 125.25 96.453C130.931 95.069 133.095 96.718 157.25 120.835C180.826 144.373 181 144.578 181 148.808C181 153.914 178.957 157.361 174.945 159.023C168.806 161.566 166.712 160.171 146.75 140.24L128 121.52L109.168 140.333C92.149 157.333 89.958 159.189 86.418 159.597C84.263 159.846 81.6 159.529 80.5 158.894" />
    <glyph glyph-name="alarm-1"
      unicode="&#xEA11;"
      horiz-adv-x="256" d="M233.12 58.8586666666667A137.06666666666666 137.06666666666666 0 0 0 213.3333333333333 128.064V170.6026666666667A85.33333333333333 85.33333333333333 0 0 1 42.6666666666667 170.6026666666667V128.128A137.07733333333334 137.07733333333334 0 0 0 22.88 58.8586666666667A10.666666666666666 10.666666666666666 0 0 1 32 42.6666666666667H224A10.666666666666666 10.666666666666666 0 0 1 233.12 58.8586666666667zM138.7413333333333 1.8666666666667A32 32 0 0 1 158.144 21.2693333333334H97.856A32 32 0 0 1 138.7413333333333 1.8666666666667z" />
    <glyph glyph-name="alarm-2"
      unicode="&#xEA12;"
      horiz-adv-x="256" d="M115.315 255.062C88.306 250.749 65.562 234.363 52.555 209.849C44.069 193.854 43.814 192.133 42.956 145C42.134 99.888 41.451 93.237 35.951 76.739C34.345 71.92 30.278 62.391 26.913 55.563C21.05 43.665 20.846 42.997 22.001 39.497C22.739 37.26 24.425 35.102 26.353 33.926C29.399 32.069 32.648 32.007 128 32.007C223.352 32.007 226.601 32.069 229.647 33.926C231.577 35.103 233.261 37.26 234.002 39.505C235.16 43.016 234.957 43.678 228.994 55.832C225.575 62.799 221.495 72.425 219.928 77.222C214.499 93.832 213.862 100.106 213.044 145C212.186 192.133 211.931 193.854 203.445 209.849C188.664 237.707 162.404 254.367 131.5 255.491C125.45 255.711 118.167 255.518 115.315 255.062M147.853 231.486C166.701 225.532 182.856 209.327 189.209 190C191.201 183.941 191.395 180.615 192.062 141C192.704 102.885 193.001 97.468 194.937 88.5C196.738 80.154 202.582 61.409 205.458 54.75C206.174 53.092 202.111 53 128 53C53.889 53 49.826 53.092 50.542 54.75C53.418 61.409 59.262 80.154 61.063 88.5C62.999 97.468 63.296 102.885 63.938 141C64.605 180.615 64.799 183.941 66.791 190C74.253 212.7 93.913 229.685 117.757 234.033C125.506 235.445 138.912 234.311 147.853 231.486M99.986 17.027C102.89 11.336 108.468 6.142 114.914 3.126C119.376 1.039 122.013 0.512 128.021 0.507C140.538 0.496 150.731 6.691 156.389 17.75L158.051 21L128.005 21L97.959 21L99.986 17.027" />
    <glyph glyph-name="zoom"
      unicode="&#xEA13;"
      horiz-adv-x="256" d="M89.342 243.587C78.905 241.596 72.681 239.376 61.9 233.797C38.951 221.921 22.118 201.204 14.412 175.353C10.9 163.57 10.011 144.532 12.385 131.922C22.815 76.517 78.114 42.147 132.852 57.048C141.24 59.332 154.201 65.527 161.393 70.69L166.286 74.202L196.893 43.706C213.727 26.933 228.483 12.713 229.684 12.105C233.827 10.009 238.908 10.754 242.077 13.923C244.489 16.335 245 17.678 245 21.607L245 26.368L213.411 58.058L181.822 89.748L185.378 94.697C200.173 115.29 205.987 145.394 200.116 171C192.258 205.275 165.485 232.659 130.5 242.206C121.215 244.739 99.249 245.476 89.342 243.587M119.981 222.933C148.146 218.364 173.616 193.974 179.517 165.919C181.399 156.974 181.393 141.549 179.505 132.5C178.701 128.65 175.936 121.225 173.36 116C169.358 107.882 167.282 105.112 159.088 96.957C151.683 89.587 147.678 86.482 141.5 83.321C128.307 76.571 123.631 75.534 106.5 75.553C92.895 75.569 90.756 75.821 83.5 78.26C72.056 82.107 63.708 87.343 54.421 96.5C38.156 112.538 30.816 131.838 32.364 154.5C33.141 165.865 34.908 172.425 39.906 182.5C52.329 207.543 77.851 223.655 105.5 223.911C109.9 223.952 116.416 223.512 119.981 222.933" />
    <glyph glyph-name="priority-normal"
      unicode="&#xEA14;"
      horiz-adv-x="256" d="M10.6666666666667 192H245.3333333333333V160H10.6666666666667V192zM10.6666666666667 96H245.3333333333333V64H10.6666666666667V96z" />
    <glyph glyph-name="priority-high"
      unicode="&#xEA15;"
      horiz-adv-x="256" d="M234.6666666666667 69.3333333333333A16 16 0 0 0 223.3493333333333 74.016L128 169.376L32.6506666666667 74.016A16 16 0 0 0 10.016 96.6506666666667L116.6826666666667 203.3173333333333A16 16 0 0 0 139.3173333333333 203.3173333333333L245.984 96.6506666666667A16 16 0 0 0 234.6666666666667 69.3333333333333z" />
    <glyph glyph-name="priority-lowest"
      unicode="&#xEA16;"
      horiz-adv-x="256" d="M234.6666666666667 154.6666666666667A16 16 0 0 1 223.3493333333333 149.984L128 54.624L32.6506666666667 149.984A16 16 0 0 1 10.016 127.3493333333333L116.6826666666667 20.6826666666667A16 16 0 0 1 139.3173333333333 20.6826666666667L245.984 127.3493333333333A16 16 0 0 1 234.6666666666667 154.6666666666667zM234.6666666666667 240A16 16 0 0 1 223.3493333333333 235.3173333333333L128 139.9573333333334L32.6506666666667 235.3173333333333A16 16 0 0 1 10.016 212.6826666666667L116.6826666666667 106.016A16 16 0 0 1 139.3173333333333 106.016L245.984 212.6826666666667A16 16 0 0 1 234.6666666666667 240z" />
    <glyph glyph-name="priority-low"
      unicode="&#xEA17;"
      horiz-adv-x="256" d="M234.6666666666667 186.6666666666667A16 16 0 0 1 223.3493333333333 181.984L128 86.624L32.6506666666667 181.984A16 16 0 0 1 10.016 159.3493333333333L116.6826666666667 52.6826666666667A16 16 0 0 1 139.3173333333333 52.6826666666667L245.984 159.3493333333333A16 16 0 0 1 234.6666666666667 186.6666666666667z" />
    <glyph glyph-name="priority-highest"
      unicode="&#xEA18;"
      horiz-adv-x="256" d="M234.6666666666667 101.3333333333333A16 16 0 0 0 223.3493333333333 106.016L128 201.376L32.6506666666667 106.016A16 16 0 0 0 10.016 128.6506666666667L116.6826666666667 235.3173333333333A16 16 0 0 0 139.3173333333333 235.3173333333333L245.984 128.6506666666667A16 16 0 0 0 234.6666666666667 101.3333333333333zM234.6666666666667 16A16 16 0 0 0 223.3493333333333 20.6826666666667L128 116.0426666666667L32.6506666666667 20.6826666666667A16 16 0 0 0 10.016 43.3173333333334L116.6826666666667 149.984A16 16 0 0 0 139.3173333333333 149.984L245.984 43.3173333333334A16 16 0 0 0 234.6666666666667 16z" />
    <glyph glyph-name="i-remove"
      unicode="&#xEA19;"
      horiz-adv-x="256" d="M77.923 178.077C74.754 174.907 74.009 169.825 76.107 165.684C76.715 164.483 85.138 155.523 94.823 145.773L112.432 128.047L93.716 109.165L75 90.283L75 85.565C75 81.683 75.518 80.328 77.923 77.923C81.093 74.754 86.175 74.009 90.316 76.107C91.517 76.715 100.487 85.148 110.25 94.846L128 112.479L145.75 94.846C155.512 85.148 164.483 76.715 165.684 76.107C169.825 74.009 174.907 74.754 178.077 77.923C180.482 80.328 181 81.683 181 85.565L181 90.283L162.284 109.165L143.568 128.047L161.177 145.773C170.862 155.523 179.285 164.483 179.893 165.684C184.587 174.949 174.949 184.587 165.684 179.893C164.483 179.285 155.512 170.852 145.75 161.154L128 143.521L110.25 161.154C100.487 170.852 91.517 179.285 90.316 179.893C86.175 181.991 81.093 181.246 77.923 178.077" />
    <glyph glyph-name="e-remove"
      unicode="&#xEA1A;"
      horiz-adv-x="256" d="M45.923 210.077C42.754 206.908 42.009 201.828 44.105 197.684C44.713 196.483 60.342 180.319 78.836 161.763L112.462 128.027L77.731 93.203L43 58.379L43 53.613C43 49.678 43.51 48.336 45.923 45.923C49.092 42.754 54.172 42.009 58.316 44.105C59.517 44.713 75.688 60.348 94.25 78.849L128 112.489L161.75 78.849C180.313 60.348 196.483 44.713 197.684 44.105C201.828 42.009 206.908 42.754 210.077 45.923C212.49 48.336 213 49.678 213 53.613L213 58.379L178.269 93.203L143.538 128.027L177.164 161.763C195.658 180.319 211.287 196.483 211.895 197.684C216.584 206.953 206.953 216.584 197.684 211.895C196.483 211.287 180.313 195.652 161.75 177.151L128 143.511L94.25 177.151C75.688 195.652 59.517 211.287 58.316 211.895C54.172 213.991 49.092 213.246 45.923 210.077" />
    <glyph glyph-name="trash-can-1"
      unicode="&#xEA1B;"
      horiz-adv-x="256" d="M88.637 254.535C86.513 253.778 83.435 251.885 81.798 250.329C76.272 245.077 75.552 242.657 75.005 227.5L74.5 213.5L40.5 213C21.8 212.725 5.769 212.136 4.876 211.691C3.983 211.247 2.457 209.406 1.485 207.601C-0.932 203.114 0.113 197.924 4.111 194.56L7.153 192L128 192L248.847 192L251.889 194.56C255.887 197.924 256.932 203.114 254.515 207.601C253.543 209.406 252.017 211.247 251.124 211.691C250.231 212.136 234.2 212.725 215.5 213L181.5 213.5L180.995 227.5C180.434 243.024 179.66 245.457 173.578 250.797C171.64 252.499 168.355 254.363 166.277 254.94C160.256 256.612 93.486 256.264 88.637 254.535M160 224L160 213L128 213L96 213L96 224L96 235L128 235L160 235L160 224M37.42 169.115C31.392 165.438 31.411 167.799 36.806 92.777C41.525 27.17 41.84 24.032 44.226 18.88C47.311 12.222 52.526 6.813 59.313 3.235L64.5 0.5L128 0.5L191.5 0.5L196.558 3.169C203.267 6.71 208.668 12.296 211.749 18.88C214.17 24.056 214.454 26.875 219.201 92.877C224.718 169.589 224.79 166.225 217.569 169.669C214.518 171.124 213.685 171.151 210.415 169.907C202.807 167.011 203.427 170.719 198.091 96.233C192.821 22.671 193.227 25.246 186.454 22.416C181.437 20.32 74.563 20.32 69.546 22.416C62.774 25.246 63.179 22.681 57.917 96.127C52.675 169.299 53.061 166.823 46.454 169.584C42.062 171.419 41.119 171.37 37.42 169.115" />
    <glyph glyph-name="trash-can-2"
      unicode="&#xEA1C;"
      horiz-adv-x="256" d="M41.28 29.7173333333334A32.10666666666667 32.10666666666667 0 0 1 73.1946666666667 0H182.8053333333334A32.10666666666667 32.10666666666667 0 0 1 214.72 29.7173333333333L224.7893333333333 170.6666666666667H31.2106666666667zM245.3333333333333 213.3333333333334H181.3333333333333V234.6666666666667A21.333333333333332 21.333333333333332 0 0 1 160 256H96A21.333333333333332 21.333333333333332 0 0 1 74.6666666666667 234.6666666666667V213.3333333333334H10.6666666666667A10.666666666666666 10.666666666666666 0 0 1 10.6666666666667 192H245.3333333333333A10.666666666666666 10.666666666666666 0 0 1 245.3333333333333 213.3333333333333zM96 234.6666666666667H160V213.3333333333334H96z" />
  </font>
</defs>
</svg>
